<svg xmlns="http://www.w3.org/2000/svg" width="16" height="16"><linearGradient id="a" x2="0" y2="16" gradientUnits="userSpaceOnUse"><stop offset=".188" stop-color="#ff4545"/><stop stop-color="#ffe345"/><stop offset=".313" stop-color="#ffe345"/><stop stop-color="#80ff45"/><stop offset=".438" stop-color="#80ff45"/><stop stop-color="#45ffa2"/><stop offset=".563" stop-color="#45ffa2"/><stop stop-color="#45d7ff"/><stop offset=".688" stop-color="#45d7ff"/><stop stop-color="#8045ff"/><stop offset=".813" stop-color="#8045ff"/><stop stop-color="#ff4596"/></linearGradient><path fill="url(#a)" d="M4.73 2A2 2 0 1 0 2 4.73v6.541a2 2 0 1 0 2.73 2.73H6v-2H4.73a2 2 0 0 0 -.73-.73V5.437l3.564 3.564H9V7.565L5.436 4.001h5.834a2 2 0 0 0 .73.73h2V4.731A2 2 0 1 0 11.27 2z"/><path fill="#fe5" d="M11 8v3H8v2h3v3h2v-3h3v-2h-3V8z"/></svg>
